<mxfile host="app.diagrams.net" modified="2023-06-06T08:11:25.841Z" agent="Mozilla/5.0 (Windows NT 10.0; Win64; x64) AppleWebKit/537.36 (KHTML, like Gecko) Chrome/113.0.0.0 Safari/537.36" etag="U4WzhX5jAWhI9gsB2GPJ" version="21.3.7" type="github">
  <diagram name="หน้า-1" id="UlF-eiUXVz7RwnlS1wyQ">
    <mxGraphModel dx="2591" dy="2236" grid="1" gridSize="10" guides="1" tooltips="1" connect="1" arrows="1" fold="1" page="1" pageScale="1" pageWidth="827" pageHeight="1169" math="0" shadow="0">
      <root>
        <mxCell id="0" />
        <mxCell id="1" parent="0" />
        <mxCell id="E_q2j0-W4uADCQufRSa3-2" value="Product" style="rounded=1;whiteSpace=wrap;html=1;fillColor=#d5e8d4;strokeColor=#82b366;" parent="1" vertex="1">
          <mxGeometry x="90" y="510" width="120" height="60" as="geometry" />
        </mxCell>
        <mxCell id="E_q2j0-W4uADCQufRSa3-5" style="edgeStyle=orthogonalEdgeStyle;rounded=0;orthogonalLoop=1;jettySize=auto;html=1;endArrow=none;endFill=0;startArrow=ERmany;startFill=0;fillColor=#d5e8d4;strokeColor=#82b366;" parent="1" source="E_q2j0-W4uADCQufRSa3-3" target="E_q2j0-W4uADCQufRSa3-2" edge="1">
          <mxGeometry relative="1" as="geometry" />
        </mxCell>
        <mxCell id="E_q2j0-W4uADCQufRSa3-3" value="ProductItem" style="rounded=1;whiteSpace=wrap;html=1;fillColor=#d5e8d4;strokeColor=#82b366;" parent="1" vertex="1">
          <mxGeometry x="80" y="670" width="140" height="60" as="geometry" />
        </mxCell>
        <mxCell id="E_q2j0-W4uADCQufRSa3-4" value="RenewProductItem" style="rounded=1;whiteSpace=wrap;html=1;fillColor=#d5e8d4;strokeColor=#82b366;" parent="1" vertex="1">
          <mxGeometry x="80" y="800" width="140" height="60" as="geometry" />
        </mxCell>
        <mxCell id="E_q2j0-W4uADCQufRSa3-6" style="edgeStyle=orthogonalEdgeStyle;rounded=0;orthogonalLoop=1;jettySize=auto;html=1;endArrow=block;endFill=0;startArrow=none;startFill=0;fillColor=#d5e8d4;strokeColor=#82b366;" parent="1" source="E_q2j0-W4uADCQufRSa3-4" target="E_q2j0-W4uADCQufRSa3-3" edge="1">
          <mxGeometry relative="1" as="geometry">
            <mxPoint x="160" y="680" as="sourcePoint" />
            <mxPoint x="250" y="600" as="targetPoint" />
            <Array as="points">
              <mxPoint x="150" y="760" />
              <mxPoint x="150" y="760" />
            </Array>
          </mxGeometry>
        </mxCell>
        <mxCell id="E_q2j0-W4uADCQufRSa3-7" value="Order" style="rounded=1;whiteSpace=wrap;html=1;fillColor=#ffe6cc;strokeColor=#d79b00;" parent="1" vertex="1">
          <mxGeometry x="660" y="510" width="120" height="60" as="geometry" />
        </mxCell>
        <mxCell id="E_q2j0-W4uADCQufRSa3-8" value="OrderItem" style="rounded=1;whiteSpace=wrap;html=1;fillColor=#ffe6cc;strokeColor=#d79b00;" parent="1" vertex="1">
          <mxGeometry x="660" y="670" width="120" height="60" as="geometry" />
        </mxCell>
        <mxCell id="E_q2j0-W4uADCQufRSa3-10" style="edgeStyle=orthogonalEdgeStyle;rounded=0;orthogonalLoop=1;jettySize=auto;html=1;endArrow=none;endFill=0;startArrow=ERmany;startFill=0;dashed=1;" parent="1" source="E_q2j0-W4uADCQufRSa3-16" target="E_q2j0-W4uADCQufRSa3-3" edge="1">
          <mxGeometry relative="1" as="geometry">
            <mxPoint x="350" y="810" as="sourcePoint" />
            <mxPoint x="350" y="740" as="targetPoint" />
          </mxGeometry>
        </mxCell>
        <mxCell id="E_q2j0-W4uADCQufRSa3-11" style="edgeStyle=orthogonalEdgeStyle;rounded=0;orthogonalLoop=1;jettySize=auto;html=1;endArrow=none;endFill=0;startArrow=ERmany;startFill=0;fillColor=#ffe6cc;strokeColor=#d79b00;" parent="1" source="E_q2j0-W4uADCQufRSa3-8" target="E_q2j0-W4uADCQufRSa3-7" edge="1">
          <mxGeometry relative="1" as="geometry">
            <mxPoint x="310" y="530" as="sourcePoint" />
            <mxPoint x="310" y="450" as="targetPoint" />
          </mxGeometry>
        </mxCell>
        <mxCell id="E_q2j0-W4uADCQufRSa3-12" value="NoticeItem" style="rounded=1;whiteSpace=wrap;html=1;fillColor=#d5e8d4;strokeColor=#82b366;" parent="1" vertex="1">
          <mxGeometry x="-340" y="670" width="120" height="60" as="geometry" />
        </mxCell>
        <mxCell id="E_q2j0-W4uADCQufRSa3-16" value="OrderItemProductItem" style="rounded=1;whiteSpace=wrap;html=1;fillColor=#ffe6cc;strokeColor=#d79b00;" parent="1" vertex="1">
          <mxGeometry x="430" y="670" width="140" height="60" as="geometry" />
        </mxCell>
        <mxCell id="E_q2j0-W4uADCQufRSa3-17" style="edgeStyle=orthogonalEdgeStyle;rounded=0;orthogonalLoop=1;jettySize=auto;html=1;endArrow=none;endFill=0;startArrow=ERmany;startFill=0;fillColor=#ffe6cc;strokeColor=#d79b00;" parent="1" source="E_q2j0-W4uADCQufRSa3-16" target="E_q2j0-W4uADCQufRSa3-8" edge="1">
          <mxGeometry relative="1" as="geometry">
            <mxPoint x="730" y="680" as="sourcePoint" />
            <mxPoint x="730" y="600" as="targetPoint" />
          </mxGeometry>
        </mxCell>
        <mxCell id="E_q2j0-W4uADCQufRSa3-18" value="ProductNoticeItem" style="rounded=1;whiteSpace=wrap;html=1;fillColor=#d5e8d4;strokeColor=#82b366;" parent="1" vertex="1">
          <mxGeometry x="-130" y="670" width="140" height="60" as="geometry" />
        </mxCell>
        <mxCell id="E_q2j0-W4uADCQufRSa3-19" style="edgeStyle=orthogonalEdgeStyle;rounded=0;orthogonalLoop=1;jettySize=auto;html=1;endArrow=none;endFill=0;startArrow=ERmany;startFill=0;fillColor=#d5e8d4;strokeColor=#82b366;" parent="1" source="E_q2j0-W4uADCQufRSa3-18" target="E_q2j0-W4uADCQufRSa3-3" edge="1">
          <mxGeometry relative="1" as="geometry">
            <mxPoint x="90" y="710" as="sourcePoint" />
            <mxPoint y="710" as="targetPoint" />
            <Array as="points">
              <mxPoint x="-60" y="700" />
            </Array>
          </mxGeometry>
        </mxCell>
        <mxCell id="E_q2j0-W4uADCQufRSa3-20" style="edgeStyle=orthogonalEdgeStyle;rounded=0;orthogonalLoop=1;jettySize=auto;html=1;endArrow=none;endFill=0;startArrow=ERmany;startFill=0;fillColor=#d5e8d4;strokeColor=#82b366;" parent="1" source="E_q2j0-W4uADCQufRSa3-18" target="E_q2j0-W4uADCQufRSa3-12" edge="1">
          <mxGeometry relative="1" as="geometry">
            <mxPoint x="-40" y="810" as="sourcePoint" />
            <mxPoint x="110" y="740" as="targetPoint" />
            <Array as="points">
              <mxPoint x="-120" y="700" />
              <mxPoint x="-120" y="700" />
            </Array>
          </mxGeometry>
        </mxCell>
        <mxCell id="HsJcJ7ZprTByXrsruYGj-1" value="OrderRole" style="rounded=1;whiteSpace=wrap;html=1;fillColor=#ffe6cc;strokeColor=#d79b00;" parent="1" vertex="1">
          <mxGeometry x="900" y="510" width="120" height="60" as="geometry" />
        </mxCell>
        <mxCell id="HsJcJ7ZprTByXrsruYGj-2" style="edgeStyle=orthogonalEdgeStyle;rounded=0;orthogonalLoop=1;jettySize=auto;html=1;endArrow=none;endFill=0;startArrow=ERmany;startFill=0;fillColor=#ffe6cc;strokeColor=#d79b00;" parent="1" source="HsJcJ7ZprTByXrsruYGj-1" target="E_q2j0-W4uADCQufRSa3-7" edge="1">
          <mxGeometry relative="1" as="geometry">
            <mxPoint x="730" y="680" as="sourcePoint" />
            <mxPoint x="730" y="580" as="targetPoint" />
          </mxGeometry>
        </mxCell>
        <mxCell id="ewMh2MggA7eMJWgJc9Aw-1" value="code" style="rounded=0;whiteSpace=wrap;html=1;" vertex="1" parent="1">
          <mxGeometry x="-442" y="370" width="1710" height="60" as="geometry" />
        </mxCell>
        <mxCell id="ewMh2MggA7eMJWgJc9Aw-2" value="component" style="rounded=0;whiteSpace=wrap;html=1;" vertex="1" parent="1">
          <mxGeometry x="-441" y="-90" width="1710" height="60" as="geometry" />
        </mxCell>
      </root>
    </mxGraphModel>
  </diagram>
</mxfile>
